<svg id="SvgjsSvg1006" width="342" height="123" xmlns="http://www.w3.org/2000/svg" version="1.1" xmlns:xlink="http://www.w3.org/1999/xlink" xmlns:svgjs="http://svgjs.com/svgjs"><defs id="SvgjsDefs1007"><marker id="SvgjsMarker1019" markerWidth="14" markerHeight="10" refX="10" refY="5" viewBox="0 0 14 10" orient="auto" markerUnits="userSpaceOnUse" stroke-dasharray="0,0"><path id="SvgjsPath1020" d="M0,0 L14,5 L0,10 L0,0" fill="#323232" stroke="#323232" stroke-width="1"></path></marker><marker id="SvgjsMarker1023" markerWidth="14" markerHeight="10" refX="10" refY="5" viewBox="0 0 14 10" orient="auto" markerUnits="userSpaceOnUse" stroke-dasharray="0,0"><path id="SvgjsPath1024" d="M0,0 L14,5 L0,10 L0,0" fill="#323232" stroke="#323232" stroke-width="1"></path></marker></defs><rect id="svgbackgroundid" width="342" height="123" fill="#ffffff"></rect><g id="SvgjsG1009" transform="translate(126,28)"><path id="SvgjsPath1010" d="M 0 0L 100 0L 100 70L 0 70Z" stroke="rgba(50,50,50,1)" stroke-width="2" fill-opacity="1" fill="#ffffff"></path><g id="SvgjsG1011"><text id="SvgjsText1012" font-family="微软雅黑" text-anchor="middle" font-size="20px" width="80px" fill="#323232" font-weight="400" align="middle" lineHeight="125%" anchor="middle" family="微软雅黑" size="20px" weight="400" font-style="" opacity="1" y="7.5" transform="rotate(0)"><tspan id="SvgjsTspan1013" dy="25" x="50"><tspan id="SvgjsTspan1014" style="text-decoration:;">Step </tspan></tspan><tspan id="SvgjsTspan1015" dy="25" x="50"><tspan id="SvgjsTspan1016" style="text-decoration:;">motor</tspan></tspan></text></g></g><g id="SvgjsG1017"><path id="SvgjsPath1018" d="M26 63L76 63L76 63L126 63" stroke="#323232" stroke-width="2" fill="none" marker-end="url(#SvgjsMarker1019)"></path></g><g id="SvgjsG1021"><path id="SvgjsPath1022" d="M227 63L271.5 63L271.5 63L317 63" stroke="#323232" stroke-width="2" fill="none" marker-end="url(#SvgjsMarker1023)"></path></g><g id="SvgjsG1025" transform="translate(25,25)"><path id="SvgjsPath1026" d="M 0 0L 84 0L 84 27L 0 27Z" stroke="none" fill="none"></path><g id="SvgjsG1027"><text id="SvgjsText1028" font-family="微软雅黑" text-anchor="middle" font-size="20px" width="84px" fill="#323232" font-weight="400" align="middle" lineHeight="125%" anchor="middle" family="微软雅黑" size="20px" weight="400" font-style="" opacity="1" y="-1.5" transform="rotate(0)"><tspan id="SvgjsTspan1029" dy="25" x="42"><tspan id="SvgjsTspan1030" style="text-decoration:;">r(t)</tspan></tspan></text></g></g><g id="SvgjsG1031" transform="translate(250,25)"><path id="SvgjsPath1032" d="M 0 0L 67 0L 67 35L 0 35Z" stroke="none" fill="none"></path><g id="SvgjsG1033"><text id="SvgjsText1034" font-family="微软雅黑" text-anchor="middle" font-size="20px" width="67px" fill="#323232" font-weight="400" align="middle" lineHeight="125%" anchor="middle" family="微软雅黑" size="20px" weight="400" font-style="" opacity="1" y="2.5" transform="rotate(0)"><tspan id="SvgjsTspan1035" dy="25" x="33.5"><tspan id="SvgjsTspan1036" style="text-decoration:;">y(t)</tspan></tspan></text></g></g></svg>