<svg id="SvgjsSvg1006" width="782.0000305175781" height="245" xmlns="http://www.w3.org/2000/svg" version="1.1" xmlns:xlink="http://www.w3.org/1999/xlink" xmlns:svgjs="http://svgjs.com/svgjs"><defs id="SvgjsDefs1007"><marker id="SvgjsMarker1033" markerWidth="14" markerHeight="10" refX="10" refY="5" viewBox="0 0 14 10" orient="auto" markerUnits="userSpaceOnUse" stroke-dasharray="0,0"><path id="SvgjsPath1034" d="M0,0 L14,5 L0,10 L0,0" fill="#323232" stroke="#323232" stroke-width="1"></path></marker><marker id="SvgjsMarker1037" markerWidth="14" markerHeight="10" refX="10" refY="5" viewBox="0 0 14 10" orient="auto" markerUnits="userSpaceOnUse" stroke-dasharray="0,0"><path id="SvgjsPath1038" d="M0,0 L14,5 L0,10 L0,0" fill="#323232" stroke="#323232" stroke-width="1"></path></marker><marker id="SvgjsMarker1041" markerWidth="14" markerHeight="10" refX="10" refY="5" viewBox="0 0 14 10" orient="auto" markerUnits="userSpaceOnUse" stroke-dasharray="0,0"><path id="SvgjsPath1042" d="M0,0 L14,5 L0,10 L0,0" fill="#323232" stroke="#323232" stroke-width="1"></path></marker><marker id="SvgjsMarker1045" markerWidth="14" markerHeight="10" refX="10" refY="5" viewBox="0 0 14 10" orient="auto" markerUnits="userSpaceOnUse" stroke-dasharray="0,0"><path id="SvgjsPath1046" d="M0,0 L14,5 L0,10 L0,0" fill="#323232" stroke="#323232" stroke-width="1"></path></marker><marker id="SvgjsMarker1049" markerWidth="14" markerHeight="10" refX="10" refY="5" viewBox="0 0 14 10" orient="auto" markerUnits="userSpaceOnUse" stroke-dasharray="0,0"><path id="SvgjsPath1050" d="M0,0 L14,5 L0,10 L0,0" fill="#323232" stroke="#323232" stroke-width="1"></path></marker><marker id="SvgjsMarker1095" markerWidth="14" markerHeight="10" refX="10" refY="5" viewBox="0 0 14 10" orient="auto" markerUnits="userSpaceOnUse" stroke-dasharray="0,0"><path id="SvgjsPath1096" d="M0,0 L14,5 L0,10 L0,0" fill="#323232" stroke="#323232" stroke-width="1"></path></marker></defs><rect id="svgbackgroundid" width="782.0000305175781" height="245" fill="#ffffff"></rect><g id="SvgjsG1009" transform="translate(125.99999237060547,43)"><path id="SvgjsPath1010" d="M 0 20C 0 -6.666666666666667 40 -6.666666666666667 40 20C 40 46.666666666666664 0 46.666666666666664 0 20Z" stroke="rgba(50,50,50,1)" stroke-width="2" fill-opacity="1" fill="#ffffff"></path><path id="SvgjsPath1011" d="M 6.666666666666666 6.666666666666666L 33.333333333333336 33.333333333333336M 33.333333333333336 6.666666666666666L 6.666666666666666 33.333333333333336" stroke="rgba(50,50,50,1)" stroke-width="2" fill-opacity="1" fill="#ffffff"></path><path id="SvgjsPath1012" d="M 0 20C 0 -6.666666666666667 40 -6.666666666666667 40 20C 40 46.666666666666664 0 46.666666666666664 0 20Z" stroke="none" fill="none"></path></g><g id="SvgjsG1013" transform="translate(265.99999237060547,28)"><path id="SvgjsPath1014" d="M 0 0L 100 0L 100 70L 0 70Z" stroke="rgba(50,50,50,1)" stroke-width="2" fill-opacity="1" fill="#ffffff"></path><g id="SvgjsG1015"><text id="SvgjsText1016" font-family="微软雅黑" text-anchor="middle" font-size="20px" width="80px" fill="#323232" font-weight="400" align="middle" lineHeight="125%" anchor="middle" family="微软雅黑" size="20px" weight="400" font-style="" opacity="1" y="20" transform="rotate(0)"><tspan id="SvgjsTspan1017" dy="25" x="50"><tspan id="SvgjsTspan1018" style="text-decoration:;">K_p</tspan></tspan></text></g></g><g id="SvgjsG1019" transform="translate(444.99999237060547,43)"><path id="SvgjsPath1020" d="M 0 20C 0 -6.666666666666667 40 -6.666666666666667 40 20C 40 46.666666666666664 0 46.666666666666664 0 20Z" stroke="rgba(50,50,50,1)" stroke-width="2" fill-opacity="1" fill="#ffffff"></path><path id="SvgjsPath1021" d="M 6.666666666666666 6.666666666666666L 33.333333333333336 33.333333333333336M 33.333333333333336 6.666666666666666L 6.666666666666666 33.333333333333336" stroke="rgba(50,50,50,1)" stroke-width="2" fill-opacity="1" fill="#ffffff"></path><path id="SvgjsPath1022" d="M 0 20C 0 -6.666666666666667 40 -6.666666666666667 40 20C 40 46.666666666666664 0 46.666666666666664 0 20Z" stroke="none" fill="none"></path></g><g id="SvgjsG1023" transform="translate(565.9999923706055,28)"><path id="SvgjsPath1024" d="M 0 0L 100 0L 100 70L 0 70Z" stroke="rgba(50,50,50,1)" stroke-width="2" fill-opacity="1" fill="#ffffff"></path><g id="SvgjsG1025"><text id="SvgjsText1026" font-family="微软雅黑" text-anchor="middle" font-size="20px" width="80px" fill="#323232" font-weight="400" align="middle" lineHeight="125%" anchor="middle" family="微软雅黑" size="20px" weight="400" font-style="" opacity="1" y="7.5" transform="rotate(0)"><tspan id="SvgjsTspan1027" dy="25" x="50"><tspan id="SvgjsTspan1028" style="text-decoration:;">Step </tspan></tspan><tspan id="SvgjsTspan1029" dy="25" x="50"><tspan id="SvgjsTspan1030" style="text-decoration:;">motor</tspan></tspan></text></g></g><g id="SvgjsG1031"><path id="SvgjsPath1032" d="M485.99999237060547 63L525.4999923706055 63L525.4999923706055 63L562.3999923706054 63" stroke="#323232" stroke-width="2" fill="none" marker-end="url(#SvgjsMarker1033)"></path></g><g id="SvgjsG1035"><path id="SvgjsPath1036" d="M166.99999237060547 63L215.99999237060547 63L215.99999237060547 63L262.39999237060545 63" stroke="#323232" stroke-width="2" fill="none" marker-end="url(#SvgjsMarker1037)"></path></g><g id="SvgjsG1039"><path id="SvgjsPath1040" d="M666.9999923706055 63L695.9999923706055 63L695.9999923706055 220L145.99999237060547 220L145.99999237060547 86.60000000000002" stroke="#323232" stroke-width="2" fill="none" marker-end="url(#SvgjsMarker1041)"></path></g><g id="SvgjsG1043"><path id="SvgjsPath1044" d="M666.9999923706055 63L711.4999923706055 63L711.4999923706055 63L756.9999923706055 63" stroke="#323232" stroke-width="2" fill="none" marker-end="url(#SvgjsMarker1045)"></path></g><g id="SvgjsG1047"><path id="SvgjsPath1048" d="M27.99999237060547 63L76.99999237060547 63L76.99999237060547 63L122.39999237060547 63" stroke="#323232" stroke-width="2" fill="none" marker-end="url(#SvgjsMarker1049)"></path></g><g id="SvgjsG1051" transform="translate(24.99999237060547,32.5)"><path id="SvgjsPath1052" d="M 0 0L 84 0L 84 27L 0 27Z" stroke="none" fill="none"></path><g id="SvgjsG1053"><text id="SvgjsText1054" font-family="微软雅黑" text-anchor="middle" font-size="20px" width="84px" fill="#323232" font-weight="400" align="middle" lineHeight="125%" anchor="middle" family="微软雅黑" size="20px" weight="400" font-style="" opacity="1" y="-1.5" transform="rotate(0)"><tspan id="SvgjsTspan1055" dy="25" x="42"><tspan id="SvgjsTspan1056" style="text-decoration:;">r(t)</tspan></tspan></text></g></g><g id="SvgjsG1057" transform="translate(97.99999237060547,36)"><path id="SvgjsPath1058" d="M 0 0L 35 0L 35 20L 0 20Z" stroke="none" fill="none"></path><g id="SvgjsG1059"><text id="SvgjsText1060" font-family="微软雅黑" text-anchor="middle" font-size="20px" width="35px" fill="#323232" font-weight="400" align="middle" lineHeight="125%" anchor="middle" family="微软雅黑" size="20px" weight="400" font-style="" opacity="1" y="-5" transform="rotate(0)"><tspan id="SvgjsTspan1061" dy="25" x="17.5"><tspan id="SvgjsTspan1062" style="text-decoration:;">+</tspan></tspan></text></g></g><g id="SvgjsG1063" transform="translate(122.99999237060547,76)"><path id="SvgjsPath1064" d="M 0 0L 72 0L 72 40L 0 40Z" stroke="none" fill="none"></path><g id="SvgjsG1065"><text id="SvgjsText1066" font-family="微软雅黑" text-anchor="middle" font-size="20px" width="72px" fill="#323232" font-weight="400" align="middle" lineHeight="125%" anchor="middle" family="微软雅黑" size="20px" weight="400" font-style="" opacity="1" y="5" transform="rotate(0)"><tspan id="SvgjsTspan1067" dy="25" x="36"><tspan id="SvgjsTspan1068" style="text-decoration:;">-</tspan></tspan></text></g></g><g id="SvgjsG1069" transform="translate(169.99999237060547,28.5)"><path id="SvgjsPath1070" d="M 0 0L 67 0L 67 35L 0 35Z" stroke="none" fill="none"></path><g id="SvgjsG1071"><text id="SvgjsText1072" font-family="微软雅黑" text-anchor="middle" font-size="20px" width="67px" fill="#323232" font-weight="400" align="middle" lineHeight="125%" anchor="middle" family="微软雅黑" size="20px" weight="400" font-style="" opacity="1" y="2.5" transform="rotate(0)"><tspan id="SvgjsTspan1073" dy="25" x="33.5"><tspan id="SvgjsTspan1074" style="text-decoration:;">e(t)</tspan></tspan></text></g></g><g id="SvgjsG1075" transform="translate(418.571420942034,36)"><path id="SvgjsPath1076" d="M 0 0L 35 0L 35 20L 0 20Z" stroke="none" fill="none"></path><g id="SvgjsG1077"><text id="SvgjsText1078" font-family="微软雅黑" text-anchor="middle" font-size="20px" width="35px" fill="#323232" font-weight="400" align="middle" lineHeight="125%" anchor="middle" family="微软雅黑" size="20px" weight="400" font-style="" opacity="1" y="-5" transform="rotate(0)"><tspan id="SvgjsTspan1079" dy="25" x="17.5"><tspan id="SvgjsTspan1080" style="text-decoration:;">+</tspan></tspan></text></g></g><g id="SvgjsG1081" transform="translate(488.99999237060547,28.5)"><path id="SvgjsPath1082" d="M 0 0L 67 0L 67 35L 0 35Z" stroke="none" fill="none"></path><g id="SvgjsG1083"><text id="SvgjsText1084" font-family="微软雅黑" text-anchor="middle" font-size="20px" width="67px" fill="#323232" font-weight="400" align="middle" lineHeight="125%" anchor="middle" family="微软雅黑" size="20px" weight="400" font-style="" opacity="1" y="2.5" transform="rotate(0)"><tspan id="SvgjsTspan1085" dy="25" x="33.5"><tspan id="SvgjsTspan1086" style="text-decoration:;">u(t)</tspan></tspan></text></g></g><g id="SvgjsG1087" transform="translate(689.9999923706055,25)"><path id="SvgjsPath1088" d="M 0 0L 67 0L 67 35L 0 35Z" stroke="none" fill="none"></path><g id="SvgjsG1089"><text id="SvgjsText1090" font-family="微软雅黑" text-anchor="middle" font-size="20px" width="67px" fill="#323232" font-weight="400" align="middle" lineHeight="125%" anchor="middle" family="微软雅黑" size="20px" weight="400" font-style="" opacity="1" y="2.5" transform="rotate(0)"><tspan id="SvgjsTspan1091" dy="25" x="33.5"><tspan id="SvgjsTspan1092" style="text-decoration:;">y(t)</tspan></tspan></text></g></g><g id="SvgjsG1093"><path id="SvgjsPath1094" d="M366.99999237060547 63L405.49999237060547 63L405.49999237060547 63L441.39999237060545 63" stroke="#323232" stroke-width="2" fill="none" marker-end="url(#SvgjsMarker1095)"></path></g></svg>